<svg width="62" height="62" viewBox="0 0 62 62" fill="none" xmlns="http://www.w3.org/2000/svg">
<path d="M31 0C13.8791 0 0 13.8791 0 31C0 48.1209 13.8791 62 31 62C48.1209 62 62 48.1209 62 31C62 13.8791 48.1209 0 31 0ZM31 6C44.8165 6 56 17.1814 56 31C56 44.8165 44.8186 56 31 56C17.1835 56 6 44.8186 6 31C6 17.1835 17.1814 6 31 6ZM48.5255 22.2834L45.7085 19.4436C45.1251 18.8555 44.1754 18.8516 43.5872 19.4351L25.9182 36.9621L18.4443 29.4275C17.8609 28.8394 16.9111 28.8355 16.323 29.4189L13.4831 32.2359C12.895 32.8192 12.8911 33.769 13.4746 34.3573L24.8223 45.7967C25.4056 46.3849 26.3554 46.3887 26.9435 45.8052L48.5171 24.4048C49.1051 23.8213 49.1089 22.8715 48.5255 22.2834Z" fill="#FF6363"/>
</svg>
