<svg width="163" height="19" viewBox="0 0 163 19" fill="none" xmlns="http://www.w3.org/2000/svg">
<path d="M5.464 1.336C7.304 1.336 8.768 1.712 9.856 2.464C10.944 3.2 11.488 4.304 11.488 5.776C11.488 6.672 11.296 7.448 10.912 8.104C10.544 8.76 10.032 9.288 9.376 9.688C10.288 10.12 11.008 10.688 11.536 11.392C12.064 12.08 12.328 12.88 12.328 13.792C12.328 14.752 12.152 15.568 11.8 16.24C11.464 16.896 11 17.432 10.408 17.848C9.832 18.248 9.176 18.544 8.44 18.736C7.704 18.912 6.944 19 6.16 19H0.28V1.336H5.464ZM5.872 8.56C6.56 8.56 7.064 8.352 7.384 7.936C7.72 7.52 7.888 7.048 7.888 6.52C7.888 5.912 7.68 5.456 7.264 5.152C6.864 4.848 6.32 4.696 5.632 4.696H3.76V8.56H5.872ZM5.992 15.76C6.76 15.76 7.408 15.608 7.936 15.304C8.464 14.984 8.728 14.48 8.728 13.792C8.728 13.28 8.584 12.896 8.296 12.64C8.008 12.368 7.632 12.184 7.168 12.088C6.72 11.976 6.248 11.92 5.752 11.92H3.76V15.76H5.992ZM33.0751 1.336V19H29.5951V11.824H21.6991V19H18.2191V1.336H21.6991V8.464H29.5951V1.336H33.0751ZM45.3773 1.336C47.6013 1.336 49.3053 1.88 50.4893 2.968C51.6893 4.04 52.2893 5.48 52.2893 7.288C52.2893 8.296 52.0733 9.288 51.6413 10.264C51.2253 11.24 50.5133 12.016 49.5053 12.592L53.6093 19H49.5533L45.8333 13.384H43.5053V19H40.0253V1.336H45.3773ZM45.9773 10.024C46.6813 10.024 47.2253 9.88 47.6093 9.592C48.0093 9.288 48.2893 8.936 48.4493 8.536C48.6093 8.12 48.6893 7.744 48.6893 7.408C48.6893 7.216 48.6573 6.976 48.5933 6.688C48.5453 6.384 48.4333 6.08 48.2573 5.776C48.0813 5.472 47.8093 5.216 47.4413 5.008C47.0893 4.8 46.6093 4.696 46.0013 4.696H43.5053V10.024H45.9773ZM57.1891 10.192C57.1891 8.976 57.4211 7.824 57.8851 6.736C58.3491 5.648 58.9891 4.688 59.8051 3.856C60.6371 3.008 61.5971 2.344 62.6851 1.864C63.7731 1.384 64.9411 1.144 66.1891 1.144C67.4211 1.144 68.5811 1.384 69.6691 1.864C70.7571 2.344 71.7171 3.008 72.5491 3.856C73.3971 4.688 74.0531 5.648 74.5171 6.736C74.9971 7.824 75.2371 8.976 75.2371 10.192C75.2371 11.44 74.9971 12.608 74.5171 13.696C74.0531 14.784 73.3971 15.744 72.5491 16.576C71.7171 17.392 70.7571 18.032 69.6691 18.496C68.5811 18.96 67.4211 19.192 66.1891 19.192C64.9411 19.192 63.7731 18.96 62.6851 18.496C61.5971 18.032 60.6371 17.392 59.8051 16.576C58.9891 15.744 58.3491 14.784 57.8851 13.696C57.4211 12.608 57.1891 11.44 57.1891 10.192ZM60.7891 10.192C60.7891 11.232 61.0291 12.184 61.5091 13.048C62.0051 13.896 62.6691 14.576 63.5011 15.088C64.3331 15.584 65.2691 15.832 66.3091 15.832C67.3171 15.832 68.2211 15.584 69.0211 15.088C69.8371 14.576 70.4771 13.896 70.9411 13.048C71.4051 12.184 71.6371 11.232 71.6371 10.192C71.6371 9.12 71.3971 8.16 70.9171 7.312C70.4371 6.448 69.7891 5.768 68.9731 5.272C68.1571 4.76 67.2371 4.504 66.2131 4.504C65.1891 4.504 64.2691 4.76 63.4531 5.272C62.6371 5.768 61.9891 6.448 61.5091 7.312C61.0291 8.16 60.7891 9.12 60.7891 10.192ZM81.1066 19V0.615999H81.1306L90.0826 13.312L99.2506 0.615999H99.2986V19H95.8186V10.576L90.0586 18.76H90.0106L84.4666 11.104V19H81.1066ZM104.272 19L112.24 0.639999H112.432L120.4 19H116.368L115 15.544H109.144L107.704 19H104.272ZM110.368 12.616H113.848L112.144 8.32L110.368 12.616ZM123.1 10.192C123.1 8.976 123.332 7.824 123.796 6.736C124.26 5.648 124.9 4.688 125.716 3.856C126.548 3.008 127.508 2.344 128.596 1.864C129.684 1.384 130.852 1.144 132.1 1.144C133.332 1.144 134.492 1.384 135.58 1.864C136.668 2.344 137.628 3.008 138.46 3.856C139.308 4.688 139.964 5.648 140.428 6.736C140.908 7.824 141.148 8.976 141.148 10.192C141.148 11.44 140.908 12.608 140.428 13.696C139.964 14.784 139.308 15.744 138.46 16.576C137.628 17.392 136.668 18.032 135.58 18.496C134.492 18.96 133.332 19.192 132.1 19.192C130.852 19.192 129.684 18.96 128.596 18.496C127.508 18.032 126.548 17.392 125.716 16.576C124.9 15.744 124.26 14.784 123.796 13.696C123.332 12.608 123.1 11.44 123.1 10.192ZM126.7 10.192C126.7 11.232 126.94 12.184 127.42 13.048C127.916 13.896 128.58 14.576 129.412 15.088C130.244 15.584 131.18 15.832 132.22 15.832C133.228 15.832 134.132 15.584 134.932 15.088C135.748 14.576 136.388 13.896 136.852 13.048C137.316 12.184 137.548 11.232 137.548 10.192C137.548 9.12 137.308 8.16 136.828 7.312C136.348 6.448 135.7 5.768 134.884 5.272C134.068 4.76 133.148 4.504 132.124 4.504C131.1 4.504 130.18 4.76 129.364 5.272C128.548 5.768 127.9 6.448 127.42 7.312C126.94 8.16 126.7 9.12 126.7 10.192ZM162.834 19.72L150.474 8.56L150.546 19H147.018V0.639999H147.162L159.498 11.968L159.426 1.336H162.93V19.72H162.834Z" fill="white"/>
</svg>
