<svg width="20" height="18" viewBox="0 0 20 18" fill="none" xmlns="http://www.w3.org/2000/svg">
<path d="M18.125 9H15V6.5C15 5.12109 16.1211 4 17.5 4H17.8125C18.332 4 18.75 3.58203 18.75 3.0625V1.1875C18.75 0.667969 18.332 0.25 17.8125 0.25H17.5C14.0469 0.25 11.25 3.04688 11.25 6.5V15.875C11.25 16.9102 12.0898 17.75 13.125 17.75H18.125C19.1602 17.75 20 16.9102 20 15.875V10.875C20 9.83984 19.1602 9 18.125 9ZM6.875 9H3.75V6.5C3.75 5.12109 4.87109 4 6.25 4H6.5625C7.08203 4 7.5 3.58203 7.5 3.0625V1.1875C7.5 0.667969 7.08203 0.25 6.5625 0.25H6.25C2.79688 0.25 0 3.04688 0 6.5V15.875C0 16.9102 0.839844 17.75 1.875 17.75H6.875C7.91016 17.75 8.75 16.9102 8.75 15.875V10.875C8.75 9.83984 7.91016 9 6.875 9Z" fill="#5373FD"/>
</svg>
