<svg width="120" height="1183" viewBox="0 0 120 1183" fill="none" xmlns="http://www.w3.org/2000/svg">
<rect width="120" height="1183" fill="white"/>
<g clip-path="url(#clip0_1_141)">
<path d="M91.1296 79.3321L78.6662 66.8708C78.1037 66.3084 77.3411 65.9959 76.541 65.9959H74.5034C77.9537 61.5838 80.0038 56.0344 80.0038 49.9975C80.0038 35.6364 68.3655 24 54.0019 24C39.6384 24 28 35.6364 28 49.9975C28 64.3586 39.6384 75.9949 54.0019 75.9949C60.0398 75.9949 65.5903 73.9451 70.0031 70.4955V72.5328C70.0031 73.3327 70.3156 74.0951 70.8781 74.6576L83.3416 87.1188C84.5166 88.2937 86.4168 88.2937 87.5794 87.1188L91.1171 83.5817C92.2922 82.4068 92.2922 80.507 91.1296 79.3321ZM54.0019 65.9959C45.1638 65.9959 38.0007 58.8466 38.0007 49.9975C38.0007 41.1608 45.1513 33.999 54.0019 33.999C62.84 33.999 70.0031 41.1483 70.0031 49.9975C70.0031 58.8341 62.8526 65.9959 54.0019 65.9959Z" fill="black"/>
</g>
<path d="M60 144C42.8791 144 29 157.879 29 175C29 192.121 42.8791 206 60 206C77.1209 206 91 192.121 91 175C91 157.879 77.1209 144 60 144ZM60 150C73.8165 150 85 161.181 85 175C85 188.816 73.8186 200 60 200C46.1835 200 35 188.819 35 175C35 161.184 46.1814 150 60 150ZM77.5255 166.283L74.7085 163.444C74.1251 162.855 73.1754 162.852 72.5872 163.435L54.9182 180.962L47.4443 173.427C46.8609 172.839 45.9111 172.835 45.323 173.419L42.4831 176.236C41.895 176.819 41.8911 177.769 42.4746 178.357L53.8223 189.797C54.4056 190.385 55.3554 190.389 55.9435 189.805L77.5171 168.405C78.1051 167.821 78.1089 166.872 77.5255 166.283Z" fill="black"/>
<path d="M86.2837 297.836C87.38 295.98 88 294 88 291.606C88 286.104 83.3477 280.909 77.2725 280.909H72.7125C73.3275 279.308 73.8187 277.392 73.8187 275.091C73.8187 265.992 69.1075 262 61.91 262C54.2091 262 54.6484 273.867 52.94 275.575C50.0966 278.418 46.7381 283.881 44.345 286H32C29.7909 286 28 287.791 28 290V320C28 322.209 29.7909 324 32 324H40C41.8616 324 43.426 322.728 43.8722 321.006C49.4359 321.131 53.2547 325.999 66.0975 325.999C67 325.999 68 326 68.875 326C78.5146 326 82.8732 321.072 82.9925 314.084C84.6574 311.781 85.5299 308.694 85.16 305.71C86.3918 303.403 86.868 300.667 86.2837 297.836ZM78.565 304.565C80.135 307.206 78.7225 310.741 76.8225 311.761C77.785 317.859 74.6215 319.999 70.1825 319.999H65.455C56.5001 319.999 50.7014 315.271 44 315.271V292H45.365C48.91 292 53.8625 283.139 57.1825 279.817C60.7275 276.272 59.5462 270.364 61.91 268C67.8187 268 67.8187 272.123 67.8187 275.091C67.8187 279.987 64.2738 282.181 64.2738 286.909H77.2725C79.9112 286.909 81.9888 289.272 82 291.636C82.0112 293.999 80.3975 296.362 79.2163 296.362C80.9024 298.182 81.2626 302.017 78.565 304.565ZM39 316C39 317.657 37.6569 319 36 319C34.3431 319 33 317.657 33 316C33 314.343 34.3431 313 36 313C37.6569 313 39 314.343 39 316Z" fill="black"/>
<path d="M57.8786 428.685L33.5857 404.392C32.4141 403.22 32.4141 401.32 33.5857 400.149L36.4191 397.316C37.5887 396.146 39.4844 396.144 40.6567 397.311L60 416.563L79.3431 397.311C80.5155 396.144 82.4111 396.146 83.5807 397.316L86.4141 400.149C87.5857 401.321 87.5857 403.22 86.4141 404.392L62.1214 428.685C60.9497 429.856 59.0503 429.856 57.8786 428.685Z" fill="black"/>
<path d="M86 532H76V524C76 519.587 79.5875 516 84 516H85C86.6625 516 88 514.663 88 513V507C88 505.337 86.6625 504 85 504H84C72.95 504 64 512.95 64 524V554C64 557.312 66.6875 560 70 560H86C89.3125 560 92 557.312 92 554V538C92 534.688 89.3125 532 86 532ZM50 532H40V524C40 519.587 43.5875 516 48 516H49C50.6625 516 52 514.663 52 513V507C52 505.337 50.6625 504 49 504H48C36.95 504 28 512.95 28 524V554C28 557.312 30.6875 560 34 560H50C53.3125 560 56 557.312 56 554V538C56 534.688 53.3125 532 50 532Z" fill="black"/>
<path d="M74.8925 655L76.67 643.417H65.5562V635.901C65.5562 632.733 67.1087 629.644 72.0862 629.644H77.1387V619.783C77.1387 619.783 72.5537 619 68.17 619C59.0175 619 53.035 624.548 53.035 634.59V643.417H42.8612V655H53.035V683H65.5562V655H74.8925Z" fill="black"/>
<path d="M92.7068 753.51C91.9217 750.554 89.6084 748.226 86.6713 747.436C81.3475 746 59.9999 746 59.9999 746C59.9999 746 38.6524 746 33.3285 747.436C30.3914 748.226 28.0782 750.554 27.293 753.51C25.8665 758.869 25.8665 770.049 25.8665 770.049C25.8665 770.049 25.8665 781.228 27.293 786.587C28.0782 789.543 30.3914 791.774 33.3285 792.564C38.6524 794 59.9999 794 59.9999 794C59.9999 794 81.3474 794 86.6713 792.564C89.6084 791.774 91.9217 789.543 92.7068 786.587C94.1333 781.228 94.1333 770.049 94.1333 770.049C94.1333 770.049 94.1333 758.869 92.7068 753.51ZM53.018 780.199V759.898L70.8604 770.049L53.018 780.199Z" fill="black"/>
<path d="M85.4212 875.965C85.4619 876.533 85.4619 877.102 85.4619 877.67C85.4619 895.01 72.264 914.99 48.1421 914.99C40.7106 914.99 33.8071 912.838 28 909.102C29.0559 909.223 30.071 909.264 31.1675 909.264C37.2994 909.264 42.9441 907.193 47.4517 903.66C41.6852 903.538 36.8527 899.762 35.1877 894.564C36 894.685 36.8121 894.767 37.665 894.767C38.8426 894.767 40.0204 894.604 41.1167 894.32C35.1066 893.102 30.5989 887.822 30.5989 881.447V881.284C32.345 882.259 34.3756 882.868 36.5278 882.949C32.9948 880.594 30.6801 876.574 30.6801 872.025C30.6801 869.589 31.3298 867.355 32.4669 865.406C38.9237 873.366 48.6294 878.563 59.5125 879.132C59.3095 878.157 59.1876 877.142 59.1876 876.127C59.1876 868.899 65.0354 863.01 72.3044 863.01C76.081 863.01 79.4921 864.594 81.8881 867.152C84.8525 866.584 87.6951 865.487 90.213 863.985C89.2383 867.031 87.1672 869.589 84.4465 871.213C87.0861 870.929 89.6445 870.198 91.9997 869.183C90.2132 871.782 87.9796 874.096 85.4212 875.965Z" fill="black"/>
<path d="M91 1008C91 1025.12 77.125 1039 60 1039C56.8 1039 53.725 1038.51 50.825 1037.61C52.0875 1035.55 53.975 1032.17 54.675 1029.49C55.05 1028.04 56.6 1022.11 56.6 1022.11C57.6125 1024.04 60.5625 1025.67 63.7 1025.67C73.05 1025.67 79.7875 1017.08 79.7875 1006.39C79.7875 996.15 71.425 988.488 60.675 988.488C47.3 988.488 40.1875 997.462 40.1875 1007.25C40.1875 1011.8 42.6125 1017.46 46.475 1019.26C47.0625 1019.54 47.375 1019.41 47.5125 1018.85C47.6125 1018.42 48.1375 1016.31 48.375 1015.34C48.45 1015.03 48.4125 1014.75 48.1625 1014.45C46.9 1012.89 45.875 1010.04 45.875 1007.38C45.875 1000.54 51.05 993.925 59.875 993.925C67.4875 993.925 72.825 999.112 72.825 1006.54C72.825 1014.92 68.5875 1020.74 63.075 1020.74C60.0375 1020.74 57.75 1018.23 58.4875 1015.14C59.3625 1011.45 61.05 1007.48 61.05 1004.81C61.05 1002.44 59.775 1000.45 57.125 1000.45C54.0125 1000.45 51.5125 1003.66 51.5125 1007.98C51.5125 1010.72 52.4375 1012.58 52.4375 1012.58C52.4375 1012.58 49.375 1025.55 48.8125 1027.97C48.1875 1030.65 48.4375 1034.42 48.7 1036.88C37.175 1032.36 29 1021.14 29 1008C29 990.875 42.875 977 60 977C77.125 977 91 990.875 91 1008Z" fill="black"/>
<path d="M84 1099H35.9875C33.7875 1099 32 1100.81 32 1103.04V1150.96C32 1153.19 33.7875 1155 35.9875 1155H84C86.2 1155 88 1153.19 88 1150.96V1103.04C88 1100.81 86.2 1099 84 1099ZM48.925 1147H40.625V1120.27H48.9375V1147H48.925ZM44.775 1116.62C42.1125 1116.62 39.9625 1114.46 39.9625 1111.81C39.9625 1109.16 42.1125 1107 44.775 1107C47.425 1107 49.5875 1109.16 49.5875 1111.81C49.5875 1114.48 47.4375 1116.62 44.775 1116.62ZM80.0375 1147H71.7375V1134C71.7375 1130.9 71.675 1126.91 67.425 1126.91C63.1 1126.91 62.4375 1130.29 62.4375 1133.78V1147H54.1375V1120.27H62.1V1123.92H62.2125C63.325 1121.82 66.0375 1119.61 70.075 1119.61C78.475 1119.61 80.0375 1125.15 80.0375 1132.35V1147Z" fill="black"/>
<defs>
<clipPath id="clip0_1_141">
<rect width="64" height="64" fill="white" transform="translate(28 24)"/>
</clipPath>
</defs>
</svg>
